<svg width="60" height="60" viewBox="0 0 60 60" fill="none" xmlns="http://www.w3.org/2000/svg">
<rect width="60" height="60" rx="15" fill="url(#paint0_linear_2_13)"/>
<path d="M28.9668 21.6934H20.0898L18.7891 27.7754H26.9629L25.9434 32.4512H17.7871L15.7305 42.207H10L15.3613 17H29.9512L28.9668 21.6934Z" fill="white"/>
<path d="M50.8516 23.416C50.8516 24.4824 50.6582 25.4492 50.2715 26.3164C49.8848 27.1719 49.3574 27.916 48.6895 28.5488C48.0215 29.1816 47.2363 29.6973 46.334 30.0957C45.4434 30.4941 44.4883 30.7637 43.4688 30.9043V30.9746C44.1953 31.209 44.8164 31.6543 45.332 32.3105C45.8477 32.9668 46.2344 33.8398 46.4922 34.9297L48.25 42.207H42.168L40.7969 35.7207C40.5859 34.6777 40.2168 33.8926 39.6895 33.3652C39.1621 32.8262 38.4414 32.5566 37.5273 32.5566H36.5605L34.5039 42.207H28.7734L34.1348 17H42.748C44.2129 17 45.4609 17.1758 46.4922 17.5273C47.5234 17.8672 48.3613 18.3359 49.0059 18.9336C49.6504 19.5195 50.1191 20.1992 50.4121 20.9727C50.7051 21.7461 50.8516 22.5605 50.8516 23.416ZM44.8047 24.3477C44.8047 23.375 44.5176 22.6191 43.9434 22.0801C43.3691 21.5293 42.502 21.2539 41.3418 21.2539H38.9688L37.457 28.2676H39.7598C40.627 28.2676 41.377 28.1621 42.0098 27.9512C42.6426 27.7285 43.1641 27.4414 43.5742 27.0898C43.9844 26.7266 44.2891 26.3105 44.4883 25.8418C44.6992 25.3613 44.8047 24.8633 44.8047 24.3477Z" fill="white"/>
<defs>
<linearGradient id="paint0_linear_2_13" x1="0" y1="30" x2="60" y2="30" gradientUnits="userSpaceOnUse">
<stop stop-color="#FF4949"/>
<stop offset="1" stop-color="#FF8000"/>
</linearGradient>
</defs>
</svg>
