<svg width="50" height="50" viewBox="0 0 50 50" fill="none" xmlns="http://www.w3.org/2000/svg">
<path d="M24.499 2.37342C24.8089 2.19399 25.1911 2.19399 25.5011 2.37342L44.2927 13.2528C44.6016 13.4316 44.7917 13.7614 44.7917 14.1182V35.8818C44.7917 36.2386 44.6016 36.5684 44.2927 36.7472L25.5011 47.6266C25.1911 47.806 24.8089 47.806 24.499 47.6266L5.70734 36.7472C5.39852 36.5684 5.20837 36.2386 5.20837 35.8818V14.1182C5.20837 13.7614 5.39852 13.4316 5.70734 13.2528L24.499 2.37342ZM12.9405 13.8798C12.2752 14.265 12.2752 15.2255 12.9405 15.6106L24.4992 22.3024C24.8091 22.4819 25.1914 22.4819 25.5013 22.3024L37.0598 15.6107C37.7251 15.2256 37.7251 14.265 37.0598 13.8799L25.5011 7.188C25.1911 7.00857 24.8089 7.00857 24.499 7.188L12.9405 13.8798ZM10.8761 19.23C10.2094 18.8441 9.37504 19.3251 9.37504 20.0955V33.4795C9.37504 33.8363 9.56519 34.1661 9.87401 34.3449L21.4159 41.027C22.0825 41.413 22.9169 40.9319 22.9169 40.1616V26.7776C22.9169 26.4208 22.7268 26.091 22.418 25.9122L10.8761 19.23ZM27.0836 40.1614C27.0836 40.9317 27.918 41.4128 28.5846 41.0268L40.1261 34.3449C40.4349 34.1661 40.625 33.8363 40.625 33.4795V20.0957C40.625 19.3253 39.7907 18.8443 39.124 19.2302L27.5825 25.9122C27.2737 26.091 27.0836 26.4208 27.0836 26.7776V40.1614Z" fill="url(#paint0_linear_3_34)"/>
<defs>
<linearGradient id="paint0_linear_3_34" x1="5.20837" y1="25" x2="44.7917" y2="25" gradientUnits="userSpaceOnUse">
<stop stop-color="#FF4949"/>
<stop offset="1" stop-color="#FF8000"/>
</linearGradient>
</defs>
</svg>
