<svg width="50" height="50" viewBox="0 0 50 50" fill="none" xmlns="http://www.w3.org/2000/svg">
<path d="M22.01 5.08262C22.4552 4.63749 23.0839 4.42791 23.7071 4.51694L41.8562 7.10966C42.7361 7.23537 43.4275 7.92676 43.5532 8.80672L46.1459 26.9559C46.2349 27.5791 46.0254 28.2078 45.5802 28.6529L27.1365 47.0965C26.323 47.9102 25.004 47.9102 24.1903 47.0965L3.56638 26.4727C2.75278 25.659 2.75278 24.34 3.56638 23.5262L22.01 5.08262ZM25.1802 8.93635C24.557 8.84733 23.9283 9.05691 23.4831 9.50204L9.40001 23.5852C8.61896 24.3662 8.61896 25.6325 9.4 26.4136L24.2492 41.2629C25.0302 42.0439 26.2965 42.0439 27.0776 41.2629L41.1608 27.1798C41.606 26.7347 41.8156 26.1059 41.7265 25.4828L39.8705 12.4896C39.7448 11.6096 39.0534 10.9182 38.1734 10.7925L25.1802 8.93635ZM28.6098 22.0531C26.9825 20.426 26.9825 17.7878 28.6098 16.1606C30.2369 14.5335 32.875 14.5335 34.5023 16.1606C36.1294 17.7878 36.1294 20.426 34.5023 22.0531C32.875 23.6804 30.2369 23.6804 28.6098 22.0531Z" fill="url(#paint0_linear_3_31)"/>
<defs>
<linearGradient id="paint0_linear_3_31" x1="2.95618" y1="26.0411" x2="46.2873" y2="26.0411" gradientUnits="userSpaceOnUse">
<stop stop-color="#FF4949"/>
<stop offset="1" stop-color="#FF8000"/>
</linearGradient>
</defs>
</svg>
