<svg width="50" height="50" viewBox="0 0 50 50" fill="none" xmlns="http://www.w3.org/2000/svg">
<path d="M44.1852 27.2784C43.9188 27.4795 43.75 27.7882 43.75 28.1219V40.6667C43.75 41.2189 44.1978 41.6667 44.75 41.6667H44.8334C45.3857 41.6667 45.8334 42.1144 45.8334 42.6667V44.8333C45.8334 45.3856 45.3857 45.8333 44.8334 45.8333H5.16671C4.61442 45.8333 4.16671 45.3856 4.16671 44.8333V42.6667C4.16671 42.1144 4.61442 41.6667 5.16671 41.6667H5.25004C5.80233 41.6667 6.25004 41.2189 6.25004 40.6667V28.1219C6.25004 27.7882 6.08125 27.4795 5.81492 27.2784C3.54832 25.5673 2.08337 22.8505 2.08337 19.7917C2.08337 18.0684 2.55094 16.4088 3.40258 14.9947L9.05275 5.20832C9.4249 4.56374 10.1127 4.16666 10.857 4.16666H39.1432C39.8873 4.16666 40.5753 4.56374 40.9473 5.20832L46.5782 14.9619C47.4492 16.4088 47.9167 18.0684 47.9167 19.7917C47.9167 22.8505 46.4518 25.5673 44.1852 27.2784ZM39.5834 30.1531C39.5834 29.5963 39.0986 29.1667 38.5417 29.1667V29.1667C36.2847 29.1667 34.1774 28.3615 32.5331 26.9891C32.0964 26.6246 31.4454 26.6246 31.0086 26.9891C29.3643 28.3615 27.2571 29.1667 25 29.1667C22.743 29.1667 20.6358 28.3615 18.9915 26.9891C18.5547 26.6246 17.9037 26.6246 17.4669 26.9891C15.8227 28.3615 13.7154 29.1667 11.4584 29.1667V29.1667C10.9015 29.1667 10.4167 29.5963 10.4167 30.1531V40.6667C10.4167 41.2189 10.8644 41.6667 11.4167 41.6667H38.5834C39.1357 41.6667 39.5834 41.2189 39.5834 40.6667V30.1531ZM12.6371 8.33332C12.2798 8.33332 11.9497 8.52391 11.771 8.8333L6.99167 17.1108C6.50856 17.9134 6.25004 18.831 6.25004 19.7917C6.25004 22.6681 8.5819 25 11.4584 25C13.6062 25 15.5098 23.6881 16.2954 21.7281C16.9946 19.9838 19.4638 19.9838 20.163 21.7281C20.9486 23.6881 22.8521 25 25 25C27.148 25 29.0515 23.6881 29.8371 21.7281C30.5363 19.9838 33.0055 19.9838 33.7046 21.7281C34.4903 23.6881 36.3938 25 38.5417 25C41.4182 25 43.75 22.6681 43.75 19.7917C43.75 18.831 43.4915 17.9134 42.989 17.078L38.2289 8.83332C38.0503 8.52392 37.7202 8.33332 37.3629 8.33332H12.6371Z" fill="url(#paint0_linear_3_28)"/>
<defs>
<linearGradient id="paint0_linear_3_28" x1="2.08337" y1="25" x2="47.9167" y2="25" gradientUnits="userSpaceOnUse">
<stop stop-color="#FF4949"/>
<stop offset="1" stop-color="#FF8000"/>
</linearGradient>
</defs>
</svg>
