<svg width="50" height="50" viewBox="0 0 50 50" fill="none" xmlns="http://www.w3.org/2000/svg">
<path d="M18.0966 8.33353L23.5271 2.90311C24.3406 2.08951 25.6598 2.08951 26.4733 2.90311L31.9037 8.33353H39.5835C40.7341 8.33353 41.6668 9.26628 41.6668 10.4169V18.0966L47.0973 23.5271C47.9108 24.3407 47.9108 25.6598 47.0973 26.4734L41.6668 31.9038V39.5836C41.6668 40.7342 40.7341 41.6669 39.5835 41.6669H31.9037L26.4733 47.0973C25.6598 47.9109 24.3406 47.9109 23.5271 47.0973L18.0966 41.6669H10.4168C9.26622 41.6669 8.33347 40.7342 8.33347 39.5836V31.9038L2.90305 26.4734C2.08945 25.6598 2.08945 24.3407 2.90305 23.5271L8.33347 18.0966V10.4169C8.33347 9.26628 9.26622 8.33353 10.4168 8.33353H18.0966ZM12.5001 12.5002V19.8225L7.32247 25.0002L12.5001 30.1779V37.5002H19.8225L25.0002 42.6779L30.1779 37.5002H37.5002V30.1779L42.6779 25.0002L37.5002 19.8225V12.5002H30.1779L25.0002 7.32253L19.8225 12.5002H12.5001ZM25.0002 33.3336C20.3978 33.3336 16.6668 29.6025 16.6668 25.0002C16.6668 20.3978 20.3978 16.6669 25.0002 16.6669C29.6025 16.6669 33.3335 20.3978 33.3335 25.0002C33.3335 29.6025 29.6025 33.3336 25.0002 33.3336ZM25.0002 29.1669C27.3014 29.1669 29.1668 27.3015 29.1668 25.0002C29.1668 22.699 27.3014 20.8336 25.0002 20.8336C22.6989 20.8336 20.8335 22.699 20.8335 25.0002C20.8335 27.3015 22.6989 29.1669 25.0002 29.1669Z" fill="url(#paint0_linear_3_40)"/>
<defs>
<linearGradient id="paint0_linear_3_40" x1="2.29285" y1="25.0002" x2="47.7074" y2="25.0002" gradientUnits="userSpaceOnUse">
<stop stop-color="#FF4949"/>
<stop offset="1" stop-color="#FF8000"/>
</linearGradient>
</defs>
</svg>
